# xmcd
#
# Track frame offsets:
# 150
# 16652
# 27815
# 50702
# 64707
# 70272
# 86917
# 103385
# 118265
# 133112
# 149607
# 170647
# 183392
# 192647
# 208797
# 226307
#
# Disc length: 3276 seconds
#
#
# Revision: 1
# Processed by: cddbd v1.5.1PL0 Copyright (c) Steve Scherf et al.
# Submitted via: FreeRIP 2.942 
#
DISCID=f90cca10
DTITLE=Basement APP - Move On Your Heartbeat
DYEAR=1993
DGENRE=Blues
TTITLE0=Talk To Me
TTITLE1=What Can I Say
TTITLE2=Good For The Gander
TTITLE3=How My Babe Can Do
TTITLE4=Yummer Man - Intro
TTITLE5=Yummer Man
TTITLE6=All The Right Time
TTITLE7=I Never Mind
TTITLE8=Place You Call Home
TTITLE9=All For You (Not All Of Me)
TTITLE10=Another Kind Of Sorrow
TTITLE11=It's No The First Time
TTITLE12=Deadload
TTITLE13=I'm No Kind Of Dancer
TTITLE14=Bye, Bye Baby
TTITLE15=Deep Blue C
EXTD=
EXTT0=
EXTT1=
EXTT2=
EXTT3=
EXTT4=
EXTT5=
EXTT6=
EXTT7=
EXTT8=
EXTT9=
EXTT10=
EXTT11=
EXTT12=
EXTT13=
EXTT14=
EXTT15=
PLAYORDER=
